<?xml version="1.0" encoding="UTF-8"?>
<svg data-bbox="45 142.25 947 533.835" height="1024" width="1024pt" viewBox="0 0 1024 768" style="isolation:isolate" xmlns="http://www.w3.org/2000/svg" data-type="ugc">
    <g>
        <defs>
            <clipPath id="ea3e7043-d442-45d7-b8d5-d4f8383af771">
                <path d="M1024 0v768H0V0h1024z"/>
            </clipPath>
        </defs>
        <g clip-path="url(#ea3e7043-d442-45d7-b8d5-d4f8383af771)">
            <path fill="#556E88" d="M828.046 554.103v24.921H601.133v-24.921h226.913z"/>
            <path fill="#F9C134" d="M146.433 361.293v-181.93c0-20.483 16.63-37.113 37.113-37.113h192.693c20.483 0 39.515 16.455 42.473 36.723l26.336 180.448-298.615 1.872z"/>
            <path fill="#F9C134" fill-rule="evenodd" d="M812.855 308.828h-24.158v309.545H992v-38.614a103.453 103.453 0 01-19.675 1.889c-88.317 0-160.019-112.843-160.019-251.834 0-7.067.185-14.066.549-20.986z"/>
            <path fill="#C0D6EE" d="M191.903 361.949V212.441c0-16.901 13.722-30.623 30.624-30.623h159.752c16.901 0 32.618 13.576 35.076 30.298l21.791 148.293-247.243 1.54z"/>
            <path fill="#505071" fill-rule="evenodd" d="M184.033 369.845V212.449c0-10.231 4.04-19.99 11.28-27.23a38.562 38.562 0 0127.23-11.28H382.3a43.124 43.124 0 0128.279 10.546c7.87 6.82 13.064 16.211 14.585 26.495l23.085 157.238-264.216 1.627zm15.74-15.792V212.449a22.835 22.835 0 016.663-16.107 22.837 22.837 0 0116.107-6.663H382.3c6.611 0 13.011 2.413 17.996 6.715a27.804 27.804 0 019.286 16.842l20.461 139.348-230.27 1.469z"/>
            <path fill="#010933" d="M145.996 312.107h294.117l5.263 42.628h-299.38v-42.628z" opacity=".36"/>
            <path fill="#010933" d="M655.566 554.431h49.186c-1.553 10.306-4.998 18.611-10.493 24.757h-38.693v-24.757z" opacity=".36"/>
            <path d="M155.134 320.632h455.223c35.448 0 64.227 28.779 64.227 64.227V548.9c0 35.448-28.779 64.227-64.227 64.227H155.134c-35.448 0-64.227-28.779-64.227-64.227V384.859c0-35.448 28.779-64.227 64.227-64.227z" fill="#f9c134" stroke-miterlimit="10"/>
            <path fill="#010933" d="M86.972 495.545c17.784-15.29 40.536-23.807 64.137-23.807h284.892a98.27 98.27 0 0169.455 28.784 98.273 98.273 0 0128.784 69.455c0 14.624-3.271 28.923-9.586 41.838" opacity=".36"/>
            <path fill="#556E88" d="M428.131 479.608a98.27 98.27 0 0169.455 28.784 98.267 98.267 0 0128.784 69.454 98.267 98.267 0 01-28.784 69.455 98.27 98.27 0 01-69.455 28.784H143.239a98.269 98.269 0 01-69.455-28.784A98.267 98.267 0 0145 577.846a98.267 98.267 0 0128.784-69.454 98.269 98.269 0 0169.455-28.784h284.892z"/>
            <path fill="#3D536C" d="M143.239 651.525c-19.55 0-38.264-7.76-52.116-21.563-13.802-13.852-21.563-32.566-21.563-52.116 0-19.549 7.761-38.264 21.563-52.115 13.852-13.803 32.566-21.564 52.116-21.564h284.892c19.55 0 38.264 7.761 52.116 21.564 13.802 13.851 21.563 32.566 21.563 52.115 0 19.55-7.761 38.264-21.563 52.116-13.852 13.803-32.566 21.563-52.116 21.563H143.239z"/>
            <path fill="#505071" d="M607.18 389.373a5.154 5.154 0 003.968-.042 5.127 5.127 0 002.785-2.847 5.155 5.155 0 00-.042-3.968 5.223 5.223 0 00-2.826-2.785 77.07 77.07 0 00-12.862-3.885 62.415 62.415 0 00-12.591-1.33 57.167 57.167 0 00-23.958 5.319 5.163 5.163 0 00-2.68 2.93 5.207 5.207 0 00.166 3.989 5.232 5.232 0 002.93 2.681 5.162 5.162 0 003.969-.166 46.468 46.468 0 0119.573-4.364c3.511.021 7.023.374 10.472 1.101a65.024 65.024 0 0111.096 3.367z"/>
            <path fill="#505071" d="M536.637 389.373a5.158 5.158 0 003.969-.042 5.192 5.192 0 002.784-2.847 5.247 5.247 0 00-.041-3.968 5.268 5.268 0 00-2.847-2.785 76.869 76.869 0 00-12.841-3.885 62.754 62.754 0 00-12.592-1.33 57.26 57.26 0 00-23.978 5.319 5.23 5.23 0 00-2.68 2.93 5.207 5.207 0 00.166 3.989 5.229 5.229 0 002.93 2.681 5.212 5.212 0 003.989-.166 46.452 46.452 0 0119.552-4.364c3.533.021 7.044.374 10.473 1.101a64.67 64.67 0 0111.116 3.367z"/>
            <path fill="#505071" d="M489.179 401.84a5.065 5.065 0 00-3.968.187 5.162 5.162 0 00-2.681 2.929 5.158 5.158 0 00.167 3.969 5.265 5.265 0 002.95 2.68 188.884 188.884 0 0032.02 8.54 192.829 192.829 0 0033.349 2.847 218.368 218.368 0 0034.533-2.826 263.283 263.283 0 0035.718-8.478 5.133 5.133 0 003.034-2.555 5.177 5.177 0 00.353-3.969 5.236 5.236 0 00-2.555-3.054 5.208 5.208 0 00-3.948-.333 248.783 248.783 0 01-34.264 8.125 205.081 205.081 0 01-32.871 2.701 182.41 182.41 0 01-31.563-2.701 177.33 177.33 0 01-30.274-8.062z"/>
        </g>
    </g>
</svg>
